<svg xmlns="http://www.w3.org/2000/svg" viewBox="0 0 200 200" fill="none" shape-rendering="auto"><metadata xmlns:rdf="http://www.w3.org/1999/02/22-rdf-syntax-ns#" xmlns:xsi="http://www.w3.org/2001/XMLSchema-instance" xmlns:dc="http://purl.org/dc/elements/1.1/" xmlns:dcterms="http://purl.org/dc/terms/"><rdf:RDF><rdf:Description><dc:title>Fun Emoji Set</dc:title><dc:creator>Davis Uche</dc:creator><dc:source xsi:type="dcterms:URI">https://www.figma.com/community/file/968125295144990435</dc:source><dcterms:license xsi:type="dcterms:URI">https://creativecommons.org/licenses/by/4.0/</dcterms:license><dc:rights>Remix of „Fun Emoji Set” (https://www.figma.com/community/file/968125295144990435) by „Davis Uche”, licensed under „CC BY 4.0” (https://creativecommons.org/licenses/by/4.0/)</dc:rights></rdf:Description></rdf:RDF></metadata><mask id="viewboxMask"><rect width="200" height="200" rx="0" ry="0" x="0" y="0" fill="#fff" /></mask><g mask="url(#viewboxMask)"><rect fill="#d84be5" width="200" height="200" x="0" y="0" /><g transform="matrix(1.5625 0 0 1.5625 37.5 110.94)"><path fill-rule="evenodd" clip-rule="evenodd" d="M4 1c0 44 72 44 72 0-24.3 8.87-48.3 9.13-72 0Z" fill="#fff"/><path fill-rule="evenodd" clip-rule="evenodd" d="M11 21c14.35 15.8 43.35 16 58 .58A140.44 140.44 0 0 1 11 21Z" fill="#DDDBDB"/><path d="M40.04 35a40.08 40.08 0 0 1-25.36-8.46C7.08 20.37 3 11.54 3 1.07A1.07 1.07 0 0 1 3.45.2a1.08 1.08 0 0 1 .97-.12c22.91 8.8 46.85 8.8 71.12 0a1.05 1.05 0 0 1 1.46.99c0 10.47-4.02 19.3-11.68 25.47a40.14 40.14 0 0 1-25.28 8.45ZM5.18 2.58c.81 20.8 18.44 30.31 34.86 30.31 16.41 0 34.11-9.5 34.86-30.35-23.78 8.3-47.22 8.32-69.72.03Z" fill="#000"/><path d="M25 36c4.5 5.16 25.03 5.5 30 0a68.29 68.29 0 0 1-30 0Z" fill="#000" style="mix-blend-mode:soft-light" opacity=".4"/></g><g transform="matrix(1.5625 0 0 1.5625 31.25 59.38)"><path d="M87.22 13.98c0-7.2-5.82-13.04-13-13.04s-13 5.84-13 13.04v3.92c0 7.2 5.82 13.04 13 13.04s13-5.83 13-13.04v-3.92Z" fill="#000"/><path d="M70 10.48a2.29 2.29 0 1 0 0-4.58 2.29 2.29 0 0 0 0 4.58Z" fill="#fff"/><path opacity=".1" d="M74.24 19.3a5.32 5.32 0 1 0 0-10.66 5.32 5.32 0 0 0 0 10.65Z" fill="#fff"/><path d="M26.22 13.98c0-7.2-5.82-13.04-13-13.04s-13 5.84-13 13.04v3.92c0 7.2 5.82 13.04 13 13.04s13-5.83 13-13.04v-3.92Z" fill="#000"/><path d="M9 10.48A2.29 2.29 0 1 0 9 5.9a2.29 2.29 0 0 0 0 4.58Z" fill="#fff"/><path opacity=".1" d="M13.24 19.3a5.32 5.32 0 1 0 0-10.66 5.32 5.32 0 0 0 0 10.65Z" fill="#fff"/><path d="M84.33-5.7H65.45C58.63-5.7 53.1-.2 53.1 6.6v18.8c0 6.79 5.52 12.3 12.34 12.3h18.88c6.81 0 12.34-5.51 12.34-12.3V6.6c0-6.8-5.53-12.3-12.34-12.3Z" fill="url(#eyesGlasses-a)"/><path d="M21.3-5.7H2.42C-4.4-5.7-9.92-.2-9.92 6.6v18.8c0 6.79 5.52 12.3 12.34 12.3H21.3c6.81 0 12.34-5.51 12.34-12.3V6.6c0-6.8-5.53-12.3-12.34-12.3Z" fill="url(#eyesGlasses-b)"/><g fill="#000"><path d="M21.06 40.12H2.18A14.83 14.83 0 0 1-8.2 35.81a14.71 14.71 0 0 1-4.33-10.34V6.6c.02-3.87 1.58-7.59 4.34-10.34A14.85 14.85 0 0 1 2.18-8.06h18.88c3.92.02 7.66 1.58 10.42 4.35 2.76 2.76 4.31 6.5 4.31 10.4v18.7A14.62 14.62 0 0 1 26.71 39c-1.79.74-3.7 1.12-5.65 1.12ZM2.18-3.26A9.96 9.96 0 0 0-7 2.83a9.85 9.85 0 0 0-.76 3.78v18.8a9.85 9.85 0 0 0 9.9 9.86h18.92a9.93 9.93 0 0 0 9.9-9.86V6.6a9.87 9.87 0 0 0-9.9-9.86H2.18ZM84.33 40.12H65.46a14.83 14.83 0 0 1-10.39-4.31 14.71 14.71 0 0 1-4.33-10.34V6.6c.02-3.87 1.58-7.59 4.34-10.34a14.85 14.85 0 0 1 10.38-4.32h18.87c3.9.03 7.65 1.59 10.41 4.35s4.31 6.5 4.32 10.4v18.7c0 3.9-1.56 7.64-4.32 10.4a14.83 14.83 0 0 1-10.41 4.33ZM65.46-3.26a9.93 9.93 0 0 0-9.9 9.87v18.8a9.85 9.85 0 0 0 9.9 9.86h18.87a9.93 9.93 0 0 0 9.9-9.86V6.6a9.85 9.85 0 0 0-9.9-9.86H65.46Z"/><path d="M53.1 10.64H33.4v4.89h19.7v-4.89Z"/></g><defs><linearGradient id="eyesGlasses-a" x1="2332.67" y1="1561.82" x2="3621.21" y2="1561.82" gradientUnits="userSpaceOnUse"><stop stop-color="#fff" stop-opacity=".3"/><stop offset=".5" stop-color="#969696" stop-opacity=".2"/><stop offset="1" stop-color="#fff" stop-opacity=".3"/></linearGradient><linearGradient id="eyesGlasses-b" x1="2269.64" y1="1561.82" x2="3558.18" y2="1561.82" gradientUnits="userSpaceOnUse"><stop stop-color="#fff" stop-opacity=".3"/><stop offset=".5" stop-color="#969696" stop-opacity=".2"/><stop offset="1" stop-color="#fff" stop-opacity=".3"/></linearGradient></defs></g></g></svg>